<svg id="Capa_1" enable-background="new 0 0 512 512" height="512" viewBox="0 0 512 512" width="512" xmlns="http://www.w3.org/2000/svg"><g><path d="m72.115 54.288 320.399-54.109c7.694-1.299 14.709 4.63 14.709 12.433v144.513h-335.108z" fill="#e94444"/><path d="m436.906 499.391v-432.494c0-6.963-5.645-12.609-12.609-12.609h-352.182v449.306c0 4.643 3.764 8.406 8.406 8.406h343.776c6.964 0 12.609-5.645 12.609-12.609z" fill="#f47c7c"/><path d="m427.276 54.288h-38.721c6.964 0 12.609 5.646 12.609 12.609v432.494c0 6.964-5.645 12.609-12.609 12.609h38.721c6.964 0 12.609-5.645 12.609-12.609v-432.494c0-6.963-5.645-12.609-12.609-12.609z" fill="#ee6161"/><g fill="#a72b2b"><path d="m178.87 389.661c-2.879-1.25-6.225-.673-8.519 1.469l-25.412 23.74-25.413-23.74c-2.292-2.142-5.639-2.72-8.519-1.469-2.879 1.25-4.741 4.09-4.741 7.229v64.622c0 4.352 3.528 7.881 7.881 7.881s7.881-3.528 7.881-7.881v-46.476l17.532 16.378c3.028 2.829 7.731 2.829 10.759 0l17.532-16.378v46.476c0 4.352 3.528 7.881 7.881 7.881 4.352 0 7.881-3.528 7.881-7.881v-64.622c-.002-3.138-1.864-5.978-4.743-7.229z"/><path d="m240.706 404.771c4.352 0 7.881-3.528 7.881-7.881 0-4.352-3.528-7.881-7.881-7.881h-37.336c-4.352 0-7.881 3.528-7.881 7.881v66.199c0 4.352 3.528 7.881 7.881 7.881h37.336c4.352 0 7.881-3.528 7.881-7.881 0-4.352-3.528-7.881-7.881-7.881h-29.455v-12.46h29.455c4.352 0 7.881-3.528 7.881-7.881s-3.528-7.881-7.881-7.881h-29.455v-22.215z"/><path d="m321.203 389.009c-4.353 0-7.881 3.528-7.881 7.881v42.54l-38.875-47.53c-2.11-2.578-5.611-3.554-8.749-2.433-3.138 1.12-5.232 4.091-5.232 7.423v64.622c0 4.352 3.528 7.881 7.881 7.881s7.881-3.528 7.881-7.881v-42.54l38.875 47.529c1.527 1.866 3.782 2.892 6.102 2.892.885 0 1.78-.15 2.646-.459 3.138-1.12 5.232-4.091 5.232-7.423v-64.621c.001-4.352-3.527-7.881-7.88-7.881z"/><path d="m397.854 389.009c-4.353 0-7.881 3.528-7.881 7.881v41.111c0 9.488-7.458 17.206-16.625 17.206s-16.625-7.719-16.625-17.206v-41.111c0-4.352-3.528-7.881-7.881-7.881s-7.881 3.528-7.881 7.881v41.111c0 18.179 14.528 32.968 32.386 32.968s32.386-14.789 32.386-32.968v-41.111c.002-4.352-3.526-7.881-7.879-7.881z"/></g><path d="m405.157 101.267c-3.084-3.635-7.679-5.949-12.819-5.949h-272.676c-9.285 0-16.812 7.527-16.812 16.812v208.053c0 9.285 7.527 16.812 16.812 16.812h272.675c5.141 0 9.735-2.313 12.819-5.949v-229.779z" fill="#f9b1b1"/><g><path d="m369.192 294.719h-228.928c-8.453 0-15.306-6.853-15.306-15.306 0-8.453 6.853-15.306 15.306-15.306h228.928c8.453 0 15.306 6.853 15.306 15.306 0 8.453-6.853 15.306-15.306 15.306z" fill="#fff2e2"/><path d="m384.516 154.684c-3-4.556-8.017-6.972-13.096-6.876 2.095-4.628 1.858-10.19-1.143-14.747-4.652-7.064-14.15-9.02-21.214-4.368s-9.019 14.15-4.368 21.214c.445.675.945 1.288 1.472 1.868l-19.154 12.614 12.342 14.458c.5.586.966 1.192 1.41 1.809l17.034-11.217c.325.713.69 1.415 1.135 2.091 4.652 7.064 14.15 9.02 21.214 4.367 7.065-4.652 9.02-14.149 4.368-21.213z" fill="#fef1da"/><path d="m171.382 264.106h134.158c11.186-7.462 20.597-17.647 27.165-29.942l13.148-24.611c5.313-9.945 3.993-22.13-3.328-30.706l-13.209-15.473c-5.987-7.014-15.101-10.546-24.252-9.399l-103.714 13.004c-27.899 3.498-48.831 27.217-48.831 55.335 0 16.643 7.3 31.574 18.863 41.792z" fill="#c86d36"/></g><path d="m401.164 97.841v236.632c4.787-2.963 7.986-8.246 7.986-14.29v-208.052c0-6.044-3.199-11.327-7.986-14.29z" fill="#f79595"/></g></svg>